<?xml version="1.0" standalone="no"?>
<!DOCTYPE svg PUBLIC "-//W3C//DTD SVG 20010904//EN"
 "http://www.w3.org/TR/2001/REC-SVG-20010904/DTD/svg10.dtd">
<svg version="1.0" xmlns="http://www.w3.org/2000/svg"
 width="1800.000000pt" height="1800.000000pt" viewBox="0 0 1800.000000 1800.000000"
 preserveAspectRatio="xMidYMid meet">
<metadata>
Created by potrace 1.14, written by Peter Selinger 2001-2017
</metadata>
<g transform="translate(0.000000,1800.000000) scale(0.100000,-0.100000)"
fill="#000000" stroke="none">
<path d="M8845 17424 c-16 -2 -66 -9 -110 -15 -1092 -143 -2244 -1328 -3252
-3344 -447 -894 -904 -2097 -972 -2560 -36 -245 180 -562 826 -1216 128 -129
233 -238 233 -241 0 -3 -53 -45 -117 -94 -65 -48 -350 -264 -633 -479 -587
-447 -688 -521 -890 -655 -282 -188 -378 -295 -484 -544 -59 -137 -142 -316
-341 -731 -642 -1344 -908 -2076 -985 -2709 -17 -136 -14 -405 5 -511 110
-626 656 -1420 1623 -2366 l256 -249 -1513 0 c-1080 0 -1525 -3 -1556 -11 -60
-15 -129 -77 -151 -134 -37 -99 0 -214 88 -272 l42 -28 1563 -3 c1236 -2 1563
-5 1563 -15 1 -6 7 -118 14 -247 14 -259 19 -280 83 -344 20 -19 52 -41 72
-48 29 -11 956 -13 4846 -13 l4810 0 40 22 c90 48 125 113 125 231 0 43 3 154
7 245 l6 167 1476 0 c1412 0 1478 1 1517 19 53 24 109 91 123 148 25 96 -19
198 -106 250 l-48 28 -1446 3 -1446 2 211 213 c626 630 1046 1157 1325 1664
282 513 345 885 245 1438 -111 610 -359 1269 -942 2505 -113 239 -248 532
-301 650 -53 118 -114 242 -136 275 -75 116 -192 218 -435 379 -124 83 -407
287 -630 455 -223 168 -524 394 -670 504 -146 110 -269 203 -274 208 -6 5 36
53 105 118 276 263 602 634 745 847 131 197 185 336 185 474 1 241 -167 803
-451 1509 -386 962 -896 1914 -1403 2621 -783 1091 -1569 1697 -2378 1835 -90
15 -401 28 -464 19z m155 -2402 l0 -1948 -362 -12 c-392 -13 -524 -22 -833
-52 -869 -87 -1636 -287 -2220 -578 -88 -43 -286 -156 -342 -194 -24 -16 -43
-26 -43 -22 0 32 231 616 363 919 338 775 668 1394 1053 1975 767 1159 1547
1794 2274 1850 52 4 98 8 103 9 4 0 7 -876 7 -1947z m2044 -3084 c31 -24 43
-39 40 -53 -2 -11 -19 -86 -38 -167 -112 -470 -393 -1313 -522 -1569 -43 -86
-70 -117 -168 -193 -231 -180 -494 -321 -787 -421 -114 -39 -333 -95 -373 -95
-15 0 -16 96 -16 1178 l0 1179 283 6 c344 8 676 31 967 68 114 14 422 66 490
83 77 19 75 20 124 -16z m471 -3908 c693 -5 1458 -15 1699 -20 575 -14 530 11
540 -295 13 -438 -65 -3387 -144 -5385 -5 -140 -10 -270 -10 -287 l0 -33
-4569 0 -4569 0 -6 93 c-4 50 -18 394 -31 762 -14 369 -32 841 -40 1050 -19
497 -82 2440 -95 2945 -5 217 -10 549 -10 736 l0 342 33 29 c34 30 35 30 193
36 711 29 4758 44 7009 27z m2070 -6480 c4 -6 3 -121 -1 -255 l-7 -245 -4536
2 -4536 3 -12 240 c-7 132 -11 246 -8 253 6 16 9090 18 9100 2z"/>
<path d="M8860 6974 c-324 -38 -537 -108 -777 -255 -269 -165 -522 -449 -651
-729 -116 -253 -163 -470 -163 -745 1 -292 65 -554 198 -800 93 -171 155 -257
287 -392 l70 -73 -162 0 c-89 0 -162 -3 -162 -7 0 -5 40 -107 88 -228 l88
-220 279 -3 280 -2 99 -320 100 -320 579 2 580 3 78 265 c43 146 86 289 94
318 l16 52 278 0 279 0 73 218 c39 119 74 223 77 230 3 9 -33 12 -159 12
l-162 0 69 73 c643 670 647 1716 9 2385 -267 280 -596 455 -975 518 -86 15
-345 26 -410 18z m-926 -1634 c113 -68 235 -124 359 -165 110 -36 294 -75 353
-75 44 0 54 -23 54 -124 0 -144 -54 -272 -159 -377 -106 -106 -219 -153 -366
-152 -146 1 -254 46 -359 150 -104 103 -158 232 -158 376 1 147 43 263 133
361 28 31 53 56 55 56 3 0 42 -22 88 -50z m2278 1 c194 -215 184 -537 -22
-743 -243 -243 -632 -189 -810 111 -53 89 -71 167 -68 282 2 69 7 94 18 99 8
5 54 13 101 19 216 28 476 124 674 250 27 17 52 31 56 31 4 0 27 -22 51 -49z
m-1412 -1146 c36 -19 50 -43 50 -89 0 -39 -45 -257 -62 -299 -13 -33 -54 -57
-97 -57 -35 0 -86 40 -95 74 -6 26 45 285 66 330 23 51 84 69 138 41z m521
-13 c28 -25 34 -42 60 -157 38 -172 38 -208 0 -246 -36 -35 -95 -40 -133 -10
-28 22 -36 47 -74 223 l-27 127 20 33 c37 63 103 76 154 30z"/>
</g>
</svg>
